<?xml version="1.0" encoding="UTF-8" standalone="no"?>
<!DOCTYPE svg PUBLIC "-//W3C//DTD SVG 1.1//EN"
 "http://www.w3.org/Graphics/SVG/1.1/DTD/svg11.dtd">
<!-- Generated by graphviz version 2.40.1 (20161225.0304)
 -->
<!-- Title: dependencies Pages: 1 -->
<svg width="837pt" height="211pt"
 viewBox="0.00 0.00 837.00 211.00" xmlns="http://www.w3.org/2000/svg" xmlns:xlink="http://www.w3.org/1999/xlink">
<g id="graph0" class="graph" transform="scale(1 1) rotate(0) translate(4 207)">
<title>dependencies</title>
<polygon fill="#ffffff" stroke="transparent" points="-4,4 -4,-207 833,-207 833,4 -4,4"/>
<text text-anchor="start" x="393.5091" y="-42.4" font-family="sans-serif" font-weight="bold" font-size="14.00" fill="#000000">Legend</text>
<polygon fill="#ffffb3" stroke="transparent" points="180.5,-10 180.5,-30 200.5,-30 200.5,-10 180.5,-10"/>
<text text-anchor="start" x="204.129" y="-15.4" font-family="sans-serif" font-size="14.00" fill="#000000"> &#160;Declarations</text>
<polygon fill="#8dd3c7" stroke="transparent" points="293.5,-10 293.5,-30 313.5,-30 313.5,-10 293.5,-10"/>
<text text-anchor="start" x="317.2251" y="-15.4" font-family="sans-serif" font-size="14.00" fill="#000000"> &#160;Module</text>
<polygon fill="#80b1d3" stroke="transparent" points="379.5,-10 379.5,-30 399.5,-30 399.5,-10 379.5,-10"/>
<text text-anchor="start" x="403.2812" y="-15.4" font-family="sans-serif" font-size="14.00" fill="#000000"> &#160;Bootstrap</text>
<polygon fill="#fdb462" stroke="transparent" points="476.5,-10 476.5,-30 496.5,-30 496.5,-10 476.5,-10"/>
<text text-anchor="start" x="500.1732" y="-15.4" font-family="sans-serif" font-size="14.00" fill="#000000"> &#160;Providers</text>
<polygon fill="#fb8072" stroke="transparent" points="572.5,-10 572.5,-30 592.5,-30 592.5,-10 572.5,-10"/>
<text text-anchor="start" x="596.2258" y="-15.4" font-family="sans-serif" font-size="14.00" fill="#000000"> &#160;Exports</text>
<g id="clust1" class="cluster">
<title>cluster_InsurersModule</title>
<polygon fill="none" stroke="#000000" stroke-dasharray="1,5" points="8,-70 8,-195 821,-195 821,-70 8,-70"/>
</g>
<g id="clust2" class="cluster">
<title>cluster_InsurersModule_declarations</title>
<polygon fill="none" stroke="#000000" points="671,-78 671,-130 813,-130 813,-78 671,-78"/>
</g>
<g id="clust4" class="cluster">
<title>cluster_InsurersModule_imports</title>
<polygon fill="none" stroke="#000000" points="352,-78 352,-130 663,-130 663,-78 352,-78"/>
</g>
<g id="clust7" class="cluster">
<title>cluster_InsurersModule_providers</title>
<polygon fill="none" stroke="#000000" points="16,-78 16,-130 344,-130 344,-78 16,-78"/>
</g>
<!-- InsurersComponent -->
<g id="node1" class="node">
<title>InsurersComponent</title>
<polygon fill="#ffffb3" stroke="#000000" points="805.4187,-122 678.5813,-122 678.5813,-86 805.4187,-86 805.4187,-122"/>
<text text-anchor="middle" x="742" y="-99.8" font-family="Times,serif" font-size="14.00" fill="#000000">InsurersComponent</text>
</g>
<!-- InsurersModule -->
<g id="node2" class="node">
<title>InsurersModule</title>
<polygon fill="#8dd3c7" stroke="#000000" points="476.136,-187 473.136,-191 452.136,-191 449.136,-187 371.864,-187 371.864,-151 476.136,-151 476.136,-187"/>
<text text-anchor="middle" x="424" y="-164.8" font-family="Times,serif" font-size="14.00" fill="#000000">InsurersModule</text>
</g>
<!-- InsurersComponent&#45;&gt;InsurersModule -->
<g id="edge1" class="edge">
<title>InsurersComponent&#45;&gt;InsurersModule</title>
<path fill="none" stroke="#000000" d="M742,-122.2843C742,-143.3211 742,-175 742,-175 742,-175 486.1551,-175 486.1551,-175"/>
<polygon fill="#000000" stroke="#000000" points="486.1552,-171.5001 476.1551,-175 486.1551,-178.5001 486.1552,-171.5001"/>
</g>
<!-- InsurersRoutingModule -->
<g id="node3" class="node">
<title>InsurersRoutingModule</title>
<polygon fill="#8dd3c7" stroke="#000000" points="654.7534,-122 651.7534,-126 630.7534,-126 627.7534,-122 505.2466,-122 505.2466,-86 654.7534,-86 654.7534,-122"/>
<text text-anchor="middle" x="580" y="-99.8" font-family="Times,serif" font-size="14.00" fill="#000000">InsurersRoutingModule</text>
</g>
<!-- InsurersRoutingModule&#45;&gt;InsurersModule -->
<g id="edge2" class="edge">
<title>InsurersRoutingModule&#45;&gt;InsurersModule</title>
<path fill="none" stroke="#000000" d="M580,-122.0225C580,-139.3734 580,-163 580,-163 580,-163 486.3797,-163 486.3797,-163"/>
<polygon fill="#000000" stroke="#000000" points="486.3797,-159.5001 476.3797,-163 486.3797,-166.5001 486.3797,-159.5001"/>
</g>
<!-- PageHeaderModule -->
<g id="node4" class="node">
<title>PageHeaderModule</title>
<polygon fill="#8dd3c7" stroke="#000000" points="487.6727,-122 484.6727,-126 463.6727,-126 460.6727,-122 360.3273,-122 360.3273,-86 487.6727,-86 487.6727,-122"/>
<text text-anchor="middle" x="424" y="-99.8" font-family="Times,serif" font-size="14.00" fill="#000000">PageHeaderModule</text>
</g>
<!-- PageHeaderModule&#45;&gt;InsurersModule -->
<g id="edge3" class="edge">
<title>PageHeaderModule&#45;&gt;InsurersModule</title>
<path fill="none" stroke="#000000" d="M424,-122.1061C424,-122.1061 424,-140.991 424,-140.991"/>
<polygon fill="#000000" stroke="#000000" points="420.5001,-140.9909 424,-150.991 427.5001,-140.991 420.5001,-140.9909"/>
</g>
<!-- CommonService -->
<g id="node5" class="node">
<title>CommonService</title>
<ellipse fill="#fdb462" stroke="#000000" cx="260" cy="-104" rx="75.8836" ry="18"/>
<text text-anchor="middle" x="260" y="-99.8" font-family="Times,serif" font-size="14.00" fill="#000000">CommonService</text>
</g>
<!-- CommonService&#45;&gt;InsurersModule -->
<g id="edge4" class="edge">
<title>CommonService&#45;&gt;InsurersModule</title>
<path fill="none" stroke="#000000" d="M260,-122.0225C260,-139.3734 260,-163 260,-163 260,-163 361.6585,-163 361.6585,-163"/>
<polygon fill="#000000" stroke="#000000" points="361.6585,-166.5001 371.6585,-163 361.6584,-159.5001 361.6585,-166.5001"/>
</g>
<!-- InsurersService -->
<g id="node6" class="node">
<title>InsurersService</title>
<ellipse fill="#fdb462" stroke="#000000" cx="95" cy="-104" rx="71.1823" ry="18"/>
<text text-anchor="middle" x="95" y="-99.8" font-family="Times,serif" font-size="14.00" fill="#000000">InsurersService</text>
</g>
<!-- InsurersService&#45;&gt;InsurersModule -->
<g id="edge5" class="edge">
<title>InsurersService&#45;&gt;InsurersModule</title>
<path fill="none" stroke="#000000" d="M95,-122.2843C95,-143.3211 95,-175 95,-175 95,-175 361.5052,-175 361.5052,-175"/>
<polygon fill="#000000" stroke="#000000" points="361.5052,-178.5001 371.5052,-175 361.5051,-171.5001 361.5052,-178.5001"/>
</g>
</g>
</svg>
