<?xml version="1.0" encoding="UTF-8" standalone="no"?>
<!DOCTYPE svg PUBLIC "-//W3C//DTD SVG 1.1//EN"
 "http://www.w3.org/Graphics/SVG/1.1/DTD/svg11.dtd">
<!-- Generated by graphviz version 2.40.1 (20161225.0304)
 -->
<!-- Title: dependencies Pages: 1 -->
<svg width="862pt" height="211pt"
 viewBox="0.00 0.00 862.00 211.00" xmlns="http://www.w3.org/2000/svg" xmlns:xlink="http://www.w3.org/1999/xlink">
<g id="graph0" class="graph" transform="scale(1 1) rotate(0) translate(4 207)">
<title>dependencies</title>
<polygon fill="#ffffff" stroke="transparent" points="-4,4 -4,-207 858,-207 858,4 -4,4"/>
<text text-anchor="start" x="406.0091" y="-42.4" font-family="sans-serif" font-weight="bold" font-size="14.00" fill="#000000">Legend</text>
<polygon fill="#ffffb3" stroke="transparent" points="193,-10 193,-30 213,-30 213,-10 193,-10"/>
<text text-anchor="start" x="216.629" y="-15.4" font-family="sans-serif" font-size="14.00" fill="#000000"> &#160;Declarations</text>
<polygon fill="#8dd3c7" stroke="transparent" points="306,-10 306,-30 326,-30 326,-10 306,-10"/>
<text text-anchor="start" x="329.7251" y="-15.4" font-family="sans-serif" font-size="14.00" fill="#000000"> &#160;Module</text>
<polygon fill="#80b1d3" stroke="transparent" points="392,-10 392,-30 412,-30 412,-10 392,-10"/>
<text text-anchor="start" x="415.7812" y="-15.4" font-family="sans-serif" font-size="14.00" fill="#000000"> &#160;Bootstrap</text>
<polygon fill="#fdb462" stroke="transparent" points="489,-10 489,-30 509,-30 509,-10 489,-10"/>
<text text-anchor="start" x="512.6732" y="-15.4" font-family="sans-serif" font-size="14.00" fill="#000000"> &#160;Providers</text>
<polygon fill="#fb8072" stroke="transparent" points="585,-10 585,-30 605,-30 605,-10 585,-10"/>
<text text-anchor="start" x="608.7258" y="-15.4" font-family="sans-serif" font-size="14.00" fill="#000000"> &#160;Exports</text>
<g id="clust1" class="cluster">
<title>cluster_AgenciesModule</title>
<polygon fill="none" stroke="#000000" stroke-dasharray="1,5" points="8,-70 8,-195 846,-195 846,-70 8,-70"/>
</g>
<g id="clust2" class="cluster">
<title>cluster_AgenciesModule_declarations</title>
<polygon fill="none" stroke="#000000" points="688,-78 688,-130 838,-130 838,-78 688,-78"/>
</g>
<g id="clust4" class="cluster">
<title>cluster_AgenciesModule_imports</title>
<polygon fill="none" stroke="#000000" points="362,-78 362,-130 680,-130 680,-78 362,-78"/>
</g>
<g id="clust7" class="cluster">
<title>cluster_AgenciesModule_providers</title>
<polygon fill="none" stroke="#000000" points="16,-78 16,-130 354,-130 354,-78 16,-78"/>
</g>
<!-- AgenciesComponent -->
<g id="node1" class="node">
<title>AgenciesComponent</title>
<polygon fill="#ffffb3" stroke="#000000" points="829.9187,-122 696.0813,-122 696.0813,-86 829.9187,-86 829.9187,-122"/>
<text text-anchor="middle" x="763" y="-99.8" font-family="Times,serif" font-size="14.00" fill="#000000">AgenciesComponent</text>
</g>
<!-- AgenciesModule -->
<g id="node2" class="node">
<title>AgenciesModule</title>
<polygon fill="#8dd3c7" stroke="#000000" points="489.636,-187 486.636,-191 465.636,-191 462.636,-187 378.364,-187 378.364,-151 489.636,-151 489.636,-187"/>
<text text-anchor="middle" x="434" y="-164.8" font-family="Times,serif" font-size="14.00" fill="#000000">AgenciesModule</text>
</g>
<!-- AgenciesComponent&#45;&gt;AgenciesModule -->
<g id="edge1" class="edge">
<title>AgenciesComponent&#45;&gt;AgenciesModule</title>
<path fill="none" stroke="#000000" d="M763,-122.2843C763,-143.3211 763,-175 763,-175 763,-175 499.8104,-175 499.8104,-175"/>
<polygon fill="#000000" stroke="#000000" points="499.8104,-171.5001 489.8104,-175 499.8103,-178.5001 499.8104,-171.5001"/>
</g>
<!-- AgenciesRoutingModule -->
<g id="node3" class="node">
<title>AgenciesRoutingModule</title>
<polygon fill="#8dd3c7" stroke="#000000" points="672.2534,-122 669.2534,-126 648.2534,-126 645.2534,-122 515.7466,-122 515.7466,-86 672.2534,-86 672.2534,-122"/>
<text text-anchor="middle" x="594" y="-99.8" font-family="Times,serif" font-size="14.00" fill="#000000">AgenciesRoutingModule</text>
</g>
<!-- AgenciesRoutingModule&#45;&gt;AgenciesModule -->
<g id="edge2" class="edge">
<title>AgenciesRoutingModule&#45;&gt;AgenciesModule</title>
<path fill="none" stroke="#000000" d="M594,-122.0225C594,-139.3734 594,-163 594,-163 594,-163 499.9602,-163 499.9602,-163"/>
<polygon fill="#000000" stroke="#000000" points="499.9603,-159.5001 489.9602,-163 499.9602,-166.5001 499.9603,-159.5001"/>
</g>
<!-- PageHeaderModule -->
<g id="node4" class="node">
<title>PageHeaderModule</title>
<polygon fill="#8dd3c7" stroke="#000000" points="497.6727,-122 494.6727,-126 473.6727,-126 470.6727,-122 370.3273,-122 370.3273,-86 497.6727,-86 497.6727,-122"/>
<text text-anchor="middle" x="434" y="-99.8" font-family="Times,serif" font-size="14.00" fill="#000000">PageHeaderModule</text>
</g>
<!-- PageHeaderModule&#45;&gt;AgenciesModule -->
<g id="edge3" class="edge">
<title>PageHeaderModule&#45;&gt;AgenciesModule</title>
<path fill="none" stroke="#000000" d="M434,-122.1061C434,-122.1061 434,-140.991 434,-140.991"/>
<polygon fill="#000000" stroke="#000000" points="430.5001,-140.9909 434,-150.991 437.5001,-140.991 430.5001,-140.9909"/>
</g>
<!-- AgenciesService -->
<g id="node5" class="node">
<title>AgenciesService</title>
<ellipse fill="#fdb462" stroke="#000000" cx="270" cy="-104" rx="75.8393" ry="18"/>
<text text-anchor="middle" x="270" y="-99.8" font-family="Times,serif" font-size="14.00" fill="#000000">AgenciesService</text>
</g>
<!-- AgenciesService&#45;&gt;AgenciesModule -->
<g id="edge4" class="edge">
<title>AgenciesService&#45;&gt;AgenciesModule</title>
<path fill="none" stroke="#000000" d="M270,-122.0225C270,-139.3734 270,-163 270,-163 270,-163 368.0192,-163 368.0192,-163"/>
<polygon fill="#000000" stroke="#000000" points="368.0192,-166.5001 378.0192,-163 368.0192,-159.5001 368.0192,-166.5001"/>
</g>
<!-- CommonService -->
<g id="node6" class="node">
<title>CommonService</title>
<ellipse fill="#fdb462" stroke="#000000" cx="100" cy="-104" rx="75.8836" ry="18"/>
<text text-anchor="middle" x="100" y="-99.8" font-family="Times,serif" font-size="14.00" fill="#000000">CommonService</text>
</g>
<!-- CommonService&#45;&gt;AgenciesModule -->
<g id="edge5" class="edge">
<title>CommonService&#45;&gt;AgenciesModule</title>
<path fill="none" stroke="#000000" d="M100,-122.2843C100,-143.3211 100,-175 100,-175 100,-175 368.0959,-175 368.0959,-175"/>
<polygon fill="#000000" stroke="#000000" points="368.0959,-178.5001 378.0959,-175 368.0959,-171.5001 368.0959,-178.5001"/>
</g>
</g>
</svg>
