<?xml version="1.0" encoding="UTF-8" standalone="no"?>
<!DOCTYPE svg PUBLIC "-//W3C//DTD SVG 1.1//EN"
 "http://www.w3.org/Graphics/SVG/1.1/DTD/svg11.dtd">
<!-- Generated by graphviz version 2.40.1 (20161225.0304)
 -->
<!-- Title: dependencies Pages: 1 -->
<svg width="1098pt" height="211pt"
 viewBox="0.00 0.00 1098.00 211.00" xmlns="http://www.w3.org/2000/svg" xmlns:xlink="http://www.w3.org/1999/xlink">
<g id="graph0" class="graph" transform="scale(1 1) rotate(0) translate(4 207)">
<title>dependencies</title>
<polygon fill="#ffffff" stroke="transparent" points="-4,4 -4,-207 1094,-207 1094,4 -4,4"/>
<text text-anchor="start" x="524.0091" y="-42.4" font-family="sans-serif" font-weight="bold" font-size="14.00" fill="#000000">Legend</text>
<polygon fill="#ffffb3" stroke="transparent" points="311,-10 311,-30 331,-30 331,-10 311,-10"/>
<text text-anchor="start" x="334.629" y="-15.4" font-family="sans-serif" font-size="14.00" fill="#000000"> &#160;Declarations</text>
<polygon fill="#8dd3c7" stroke="transparent" points="424,-10 424,-30 444,-30 444,-10 424,-10"/>
<text text-anchor="start" x="447.7251" y="-15.4" font-family="sans-serif" font-size="14.00" fill="#000000"> &#160;Module</text>
<polygon fill="#80b1d3" stroke="transparent" points="510,-10 510,-30 530,-30 530,-10 510,-10"/>
<text text-anchor="start" x="533.7812" y="-15.4" font-family="sans-serif" font-size="14.00" fill="#000000"> &#160;Bootstrap</text>
<polygon fill="#fdb462" stroke="transparent" points="607,-10 607,-30 627,-30 627,-10 607,-10"/>
<text text-anchor="start" x="630.6732" y="-15.4" font-family="sans-serif" font-size="14.00" fill="#000000"> &#160;Providers</text>
<polygon fill="#fb8072" stroke="transparent" points="703,-10 703,-30 723,-30 723,-10 703,-10"/>
<text text-anchor="start" x="726.7258" y="-15.4" font-family="sans-serif" font-size="14.00" fill="#000000"> &#160;Exports</text>
<g id="clust1" class="cluster">
<title>cluster_VehicleContactsModule</title>
<polygon fill="none" stroke="#000000" stroke-dasharray="1,5" points="8,-70 8,-195 1082,-195 1082,-70 8,-70"/>
</g>
<g id="clust2" class="cluster">
<title>cluster_VehicleContactsModule_declarations</title>
<polygon fill="none" stroke="#000000" points="884,-78 884,-130 1074,-130 1074,-78 884,-78"/>
</g>
<g id="clust4" class="cluster">
<title>cluster_VehicleContactsModule_imports</title>
<polygon fill="none" stroke="#000000" points="517,-78 517,-130 876,-130 876,-78 517,-78"/>
</g>
<g id="clust7" class="cluster">
<title>cluster_VehicleContactsModule_providers</title>
<polygon fill="none" stroke="#000000" points="16,-78 16,-130 509,-130 509,-78 16,-78"/>
</g>
<!-- VehicleContactsComponent -->
<g id="node1" class="node">
<title>VehicleContactsComponent</title>
<polygon fill="#ffffb3" stroke="#000000" points="1065.8557,-122 892.1443,-122 892.1443,-86 1065.8557,-86 1065.8557,-122"/>
<text text-anchor="middle" x="979" y="-99.8" font-family="Times,serif" font-size="14.00" fill="#000000">VehicleContactsComponent</text>
</g>
<!-- VehicleContactsModule -->
<g id="node2" class="node">
<title>VehicleContactsModule</title>
<polygon fill="#8dd3c7" stroke="#000000" points="600.073,-187 597.073,-191 576.073,-191 573.073,-187 447.927,-187 447.927,-151 600.073,-151 600.073,-187"/>
<text text-anchor="middle" x="524" y="-164.8" font-family="Times,serif" font-size="14.00" fill="#000000">VehicleContactsModule</text>
</g>
<!-- VehicleContactsComponent&#45;&gt;VehicleContactsModule -->
<g id="edge1" class="edge">
<title>VehicleContactsComponent&#45;&gt;VehicleContactsModule</title>
<path fill="none" stroke="#000000" d="M979,-122.2843C979,-143.3211 979,-175 979,-175 979,-175 610.1568,-175 610.1568,-175"/>
<polygon fill="#000000" stroke="#000000" points="610.1568,-171.5001 600.1568,-175 610.1567,-178.5001 610.1568,-171.5001"/>
</g>
<!-- PageHeaderModule -->
<g id="node3" class="node">
<title>PageHeaderModule</title>
<polygon fill="#8dd3c7" stroke="#000000" points="867.6727,-122 864.6727,-126 843.6727,-126 840.6727,-122 740.3273,-122 740.3273,-86 867.6727,-86 867.6727,-122"/>
<text text-anchor="middle" x="804" y="-99.8" font-family="Times,serif" font-size="14.00" fill="#000000">PageHeaderModule</text>
</g>
<!-- PageHeaderModule&#45;&gt;VehicleContactsModule -->
<g id="edge2" class="edge">
<title>PageHeaderModule&#45;&gt;VehicleContactsModule</title>
<path fill="none" stroke="#000000" d="M804,-122.0225C804,-139.3734 804,-163 804,-163 804,-163 610.1414,-163 610.1414,-163"/>
<polygon fill="#000000" stroke="#000000" points="610.1414,-159.5001 600.1414,-163 610.1413,-166.5001 610.1414,-159.5001"/>
</g>
<!-- VehicleContactsRoutingModule -->
<g id="node4" class="node">
<title>VehicleContactsRoutingModule</title>
<polygon fill="#8dd3c7" stroke="#000000" points="722.6909,-122 719.6909,-126 698.6909,-126 695.6909,-122 525.3091,-122 525.3091,-86 722.6909,-86 722.6909,-122"/>
<text text-anchor="middle" x="624" y="-99.8" font-family="Times,serif" font-size="14.00" fill="#000000">VehicleContactsRoutingModule</text>
</g>
<!-- VehicleContactsRoutingModule&#45;&gt;VehicleContactsModule -->
<g id="edge3" class="edge">
<title>VehicleContactsRoutingModule&#45;&gt;VehicleContactsModule</title>
<path fill="none" stroke="#000000" d="M562.7206,-122.1061C562.7206,-122.1061 562.7206,-140.991 562.7206,-140.991"/>
<polygon fill="#000000" stroke="#000000" points="559.2206,-140.9909 562.7206,-150.991 566.2206,-140.991 559.2206,-140.9909"/>
</g>
<!-- CommonService -->
<g id="node5" class="node">
<title>CommonService</title>
<ellipse fill="#fdb462" stroke="#000000" cx="425" cy="-104" rx="75.8836" ry="18"/>
<text text-anchor="middle" x="425" y="-99.8" font-family="Times,serif" font-size="14.00" fill="#000000">CommonService</text>
</g>
<!-- CommonService&#45;&gt;VehicleContactsModule -->
<g id="edge4" class="edge">
<title>CommonService&#45;&gt;VehicleContactsModule</title>
<path fill="none" stroke="#000000" d="M474.4526,-117.7848C474.4526,-117.7848 474.4526,-140.5475 474.4526,-140.5475"/>
<polygon fill="#000000" stroke="#000000" points="470.9527,-140.5474 474.4526,-150.5475 477.9527,-140.5475 470.9527,-140.5474"/>
</g>
<!-- PoliciesService -->
<g id="node6" class="node">
<title>PoliciesService</title>
<ellipse fill="#fdb462" stroke="#000000" cx="260" cy="-104" rx="70.6374" ry="18"/>
<text text-anchor="middle" x="260" y="-99.8" font-family="Times,serif" font-size="14.00" fill="#000000">PoliciesService</text>
</g>
<!-- PoliciesService&#45;&gt;VehicleContactsModule -->
<g id="edge5" class="edge">
<title>PoliciesService&#45;&gt;VehicleContactsModule</title>
<path fill="none" stroke="#000000" d="M260,-122.0225C260,-139.3734 260,-163 260,-163 260,-163 437.6403,-163 437.6403,-163"/>
<polygon fill="#000000" stroke="#000000" points="437.6403,-166.5001 447.6403,-163 437.6402,-159.5001 437.6403,-166.5001"/>
</g>
<!-- VehiclesService -->
<g id="node7" class="node">
<title>VehiclesService</title>
<ellipse fill="#fdb462" stroke="#000000" cx="98" cy="-104" rx="73.5502" ry="18"/>
<text text-anchor="middle" x="98" y="-99.8" font-family="Times,serif" font-size="14.00" fill="#000000">VehiclesService</text>
</g>
<!-- VehiclesService&#45;&gt;VehicleContactsModule -->
<g id="edge6" class="edge">
<title>VehiclesService&#45;&gt;VehicleContactsModule</title>
<path fill="none" stroke="#000000" d="M98,-122.2843C98,-143.3211 98,-175 98,-175 98,-175 437.8397,-175 437.8397,-175"/>
<polygon fill="#000000" stroke="#000000" points="437.8398,-178.5001 447.8397,-175 437.8397,-171.5001 437.8398,-178.5001"/>
</g>
</g>
</svg>
