<?xml version="1.0" encoding="UTF-8" standalone="no"?>
<!DOCTYPE svg PUBLIC "-//W3C//DTD SVG 1.1//EN"
 "http://www.w3.org/Graphics/SVG/1.1/DTD/svg11.dtd">
<!-- Generated by graphviz version 2.40.1 (20161225.0304)
 -->
<!-- Title: dependencies Pages: 1 -->
<svg width="906pt" height="211pt"
 viewBox="0.00 0.00 906.00 211.00" xmlns="http://www.w3.org/2000/svg" xmlns:xlink="http://www.w3.org/1999/xlink">
<g id="graph0" class="graph" transform="scale(1 1) rotate(0) translate(4 207)">
<title>dependencies</title>
<polygon fill="#ffffff" stroke="transparent" points="-4,4 -4,-207 902,-207 902,4 -4,4"/>
<text text-anchor="start" x="428.0091" y="-42.4" font-family="sans-serif" font-weight="bold" font-size="14.00" fill="#000000">Legend</text>
<polygon fill="#ffffb3" stroke="transparent" points="215,-10 215,-30 235,-30 235,-10 215,-10"/>
<text text-anchor="start" x="238.629" y="-15.4" font-family="sans-serif" font-size="14.00" fill="#000000"> &#160;Declarations</text>
<polygon fill="#8dd3c7" stroke="transparent" points="328,-10 328,-30 348,-30 348,-10 328,-10"/>
<text text-anchor="start" x="351.7251" y="-15.4" font-family="sans-serif" font-size="14.00" fill="#000000"> &#160;Module</text>
<polygon fill="#80b1d3" stroke="transparent" points="414,-10 414,-30 434,-30 434,-10 414,-10"/>
<text text-anchor="start" x="437.7812" y="-15.4" font-family="sans-serif" font-size="14.00" fill="#000000"> &#160;Bootstrap</text>
<polygon fill="#fdb462" stroke="transparent" points="511,-10 511,-30 531,-30 531,-10 511,-10"/>
<text text-anchor="start" x="534.6732" y="-15.4" font-family="sans-serif" font-size="14.00" fill="#000000"> &#160;Providers</text>
<polygon fill="#fb8072" stroke="transparent" points="607,-10 607,-30 627,-30 627,-10 607,-10"/>
<text text-anchor="start" x="630.7258" y="-15.4" font-family="sans-serif" font-size="14.00" fill="#000000"> &#160;Exports</text>
<g id="clust1" class="cluster">
<title>cluster_PolicyReportsModule</title>
<polygon fill="none" stroke="#000000" stroke-dasharray="1,5" points="8,-70 8,-195 890,-195 890,-70 8,-70"/>
</g>
<g id="clust2" class="cluster">
<title>cluster_PolicyReportsModule_declarations</title>
<polygon fill="none" stroke="#000000" points="706,-78 706,-130 882,-130 882,-78 706,-78"/>
</g>
<g id="clust4" class="cluster">
<title>cluster_PolicyReportsModule_imports</title>
<polygon fill="none" stroke="#000000" points="352,-78 352,-130 698,-130 698,-78 352,-78"/>
</g>
<g id="clust7" class="cluster">
<title>cluster_PolicyReportsModule_providers</title>
<polygon fill="none" stroke="#000000" points="16,-78 16,-130 344,-130 344,-78 16,-78"/>
</g>
<!-- PolicyReportsComponent -->
<g id="node1" class="node">
<title>PolicyReportsComponent</title>
<polygon fill="#ffffb3" stroke="#000000" points="874.1582,-122 713.8418,-122 713.8418,-86 874.1582,-86 874.1582,-122"/>
<text text-anchor="middle" x="794" y="-99.8" font-family="Times,serif" font-size="14.00" fill="#000000">PolicyReportsComponent</text>
</g>
<!-- PolicyReportsModule -->
<g id="node2" class="node">
<title>PolicyReportsModule</title>
<polygon fill="#8dd3c7" stroke="#000000" points="521.3753,-187 518.3753,-191 497.3753,-191 494.3753,-187 382.6247,-187 382.6247,-151 521.3753,-151 521.3753,-187"/>
<text text-anchor="middle" x="452" y="-164.8" font-family="Times,serif" font-size="14.00" fill="#000000">PolicyReportsModule</text>
</g>
<!-- PolicyReportsComponent&#45;&gt;PolicyReportsModule -->
<g id="edge1" class="edge">
<title>PolicyReportsComponent&#45;&gt;PolicyReportsModule</title>
<path fill="none" stroke="#000000" d="M794,-122.2843C794,-143.3211 794,-175 794,-175 794,-175 531.621,-175 531.621,-175"/>
<polygon fill="#000000" stroke="#000000" points="531.6211,-171.5001 521.621,-175 531.621,-178.5001 531.6211,-171.5001"/>
</g>
<!-- PageHeaderModule -->
<g id="node3" class="node">
<title>PageHeaderModule</title>
<polygon fill="#8dd3c7" stroke="#000000" points="689.6727,-122 686.6727,-126 665.6727,-126 662.6727,-122 562.3273,-122 562.3273,-86 689.6727,-86 689.6727,-122"/>
<text text-anchor="middle" x="626" y="-99.8" font-family="Times,serif" font-size="14.00" fill="#000000">PageHeaderModule</text>
</g>
<!-- PageHeaderModule&#45;&gt;PolicyReportsModule -->
<g id="edge2" class="edge">
<title>PageHeaderModule&#45;&gt;PolicyReportsModule</title>
<path fill="none" stroke="#000000" d="M626,-122.0225C626,-139.3734 626,-163 626,-163 626,-163 531.5196,-163 531.5196,-163"/>
<polygon fill="#000000" stroke="#000000" points="531.5196,-159.5001 521.5196,-163 531.5195,-166.5001 531.5196,-159.5001"/>
</g>
<!-- PolicyReportsRoutingModule -->
<g id="node4" class="node">
<title>PolicyReportsRoutingModule</title>
<polygon fill="#8dd3c7" stroke="#000000" points="543.993,-122 540.993,-126 519.993,-126 516.993,-122 360.007,-122 360.007,-86 543.993,-86 543.993,-122"/>
<text text-anchor="middle" x="452" y="-99.8" font-family="Times,serif" font-size="14.00" fill="#000000">PolicyReportsRoutingModule</text>
</g>
<!-- PolicyReportsRoutingModule&#45;&gt;PolicyReportsModule -->
<g id="edge3" class="edge">
<title>PolicyReportsRoutingModule&#45;&gt;PolicyReportsModule</title>
<path fill="none" stroke="#000000" d="M452,-122.1061C452,-122.1061 452,-140.991 452,-140.991"/>
<polygon fill="#000000" stroke="#000000" points="448.5001,-140.9909 452,-150.991 455.5001,-140.991 448.5001,-140.9909"/>
</g>
<!-- CommonService -->
<g id="node5" class="node">
<title>CommonService</title>
<ellipse fill="#fdb462" stroke="#000000" cx="260" cy="-104" rx="75.8836" ry="18"/>
<text text-anchor="middle" x="260" y="-99.8" font-family="Times,serif" font-size="14.00" fill="#000000">CommonService</text>
</g>
<!-- CommonService&#45;&gt;PolicyReportsModule -->
<g id="edge4" class="edge">
<title>CommonService&#45;&gt;PolicyReportsModule</title>
<path fill="none" stroke="#000000" d="M260,-122.0225C260,-139.3734 260,-163 260,-163 260,-163 372.4121,-163 372.4121,-163"/>
<polygon fill="#000000" stroke="#000000" points="372.4122,-166.5001 382.4121,-163 372.4121,-159.5001 372.4122,-166.5001"/>
</g>
<!-- PoliciesService -->
<g id="node6" class="node">
<title>PoliciesService</title>
<ellipse fill="#fdb462" stroke="#000000" cx="95" cy="-104" rx="70.6374" ry="18"/>
<text text-anchor="middle" x="95" y="-99.8" font-family="Times,serif" font-size="14.00" fill="#000000">PoliciesService</text>
</g>
<!-- PoliciesService&#45;&gt;PolicyReportsModule -->
<g id="edge5" class="edge">
<title>PoliciesService&#45;&gt;PolicyReportsModule</title>
<path fill="none" stroke="#000000" d="M95,-122.2843C95,-143.3211 95,-175 95,-175 95,-175 372.3193,-175 372.3193,-175"/>
<polygon fill="#000000" stroke="#000000" points="372.3194,-178.5001 382.3193,-175 372.3193,-171.5001 372.3194,-178.5001"/>
</g>
</g>
</svg>
