<?xml version="1.0" encoding="UTF-8" standalone="no"?>
<!DOCTYPE svg PUBLIC "-//W3C//DTD SVG 1.1//EN"
 "http://www.w3.org/Graphics/SVG/1.1/DTD/svg11.dtd">
<!-- Generated by graphviz version 2.40.1 (20161225.0304)
 -->
<!-- Title: dependencies Pages: 1 -->
<svg width="820pt" height="211pt"
 viewBox="0.00 0.00 820.00 211.00" xmlns="http://www.w3.org/2000/svg" xmlns:xlink="http://www.w3.org/1999/xlink">
<g id="graph0" class="graph" transform="scale(1 1) rotate(0) translate(4 207)">
<title>dependencies</title>
<polygon fill="#ffffff" stroke="transparent" points="-4,4 -4,-207 816,-207 816,4 -4,4"/>
<text text-anchor="start" x="385.0091" y="-42.4" font-family="sans-serif" font-weight="bold" font-size="14.00" fill="#000000">Legend</text>
<polygon fill="#ffffb3" stroke="transparent" points="172,-10 172,-30 192,-30 192,-10 172,-10"/>
<text text-anchor="start" x="195.629" y="-15.4" font-family="sans-serif" font-size="14.00" fill="#000000"> &#160;Declarations</text>
<polygon fill="#8dd3c7" stroke="transparent" points="285,-10 285,-30 305,-30 305,-10 285,-10"/>
<text text-anchor="start" x="308.7251" y="-15.4" font-family="sans-serif" font-size="14.00" fill="#000000"> &#160;Module</text>
<polygon fill="#80b1d3" stroke="transparent" points="371,-10 371,-30 391,-30 391,-10 371,-10"/>
<text text-anchor="start" x="394.7812" y="-15.4" font-family="sans-serif" font-size="14.00" fill="#000000"> &#160;Bootstrap</text>
<polygon fill="#fdb462" stroke="transparent" points="468,-10 468,-30 488,-30 488,-10 468,-10"/>
<text text-anchor="start" x="491.6732" y="-15.4" font-family="sans-serif" font-size="14.00" fill="#000000"> &#160;Providers</text>
<polygon fill="#fb8072" stroke="transparent" points="564,-10 564,-30 584,-30 584,-10 564,-10"/>
<text text-anchor="start" x="587.7258" y="-15.4" font-family="sans-serif" font-size="14.00" fill="#000000"> &#160;Exports</text>
<g id="clust1" class="cluster">
<title>cluster_ClientsModule</title>
<polygon fill="none" stroke="#000000" stroke-dasharray="1,5" points="8,-70 8,-195 804,-195 804,-70 8,-70"/>
</g>
<g id="clust2" class="cluster">
<title>cluster_ClientsModule_declarations</title>
<polygon fill="none" stroke="#000000" points="658,-78 658,-130 796,-130 796,-78 658,-78"/>
</g>
<g id="clust4" class="cluster">
<title>cluster_ClientsModule_imports</title>
<polygon fill="none" stroke="#000000" points="344,-78 344,-130 650,-130 650,-78 344,-78"/>
</g>
<g id="clust7" class="cluster">
<title>cluster_ClientsModule_providers</title>
<polygon fill="none" stroke="#000000" points="16,-78 16,-130 336,-130 336,-78 16,-78"/>
</g>
<!-- ClientsComponent -->
<g id="node1" class="node">
<title>ClientsComponent</title>
<polygon fill="#ffffb3" stroke="#000000" points="787.5,-122 666.5,-122 666.5,-86 787.5,-86 787.5,-122"/>
<text text-anchor="middle" x="727" y="-99.8" font-family="Times,serif" font-size="14.00" fill="#000000">ClientsComponent</text>
</g>
<!-- ClientsModule -->
<g id="node2" class="node">
<title>ClientsModule</title>
<polygon fill="#8dd3c7" stroke="#000000" points="465.7176,-187 462.7176,-191 441.7176,-191 438.7176,-187 366.2824,-187 366.2824,-151 465.7176,-151 465.7176,-187"/>
<text text-anchor="middle" x="416" y="-164.8" font-family="Times,serif" font-size="14.00" fill="#000000">ClientsModule</text>
</g>
<!-- ClientsComponent&#45;&gt;ClientsModule -->
<g id="edge1" class="edge">
<title>ClientsComponent&#45;&gt;ClientsModule</title>
<path fill="none" stroke="#000000" d="M727,-122.2843C727,-143.3211 727,-175 727,-175 727,-175 475.6228,-175 475.6228,-175"/>
<polygon fill="#000000" stroke="#000000" points="475.6228,-171.5001 465.6228,-175 475.6227,-178.5001 475.6228,-171.5001"/>
</g>
<!-- ClientsRoutingModule -->
<g id="node3" class="node">
<title>ClientsRoutingModule</title>
<polygon fill="#8dd3c7" stroke="#000000" points="642.3356,-122 639.3356,-126 618.3356,-126 615.3356,-122 497.6644,-122 497.6644,-86 642.3356,-86 642.3356,-122"/>
<text text-anchor="middle" x="570" y="-99.8" font-family="Times,serif" font-size="14.00" fill="#000000">ClientsRoutingModule</text>
</g>
<!-- ClientsRoutingModule&#45;&gt;ClientsModule -->
<g id="edge2" class="edge">
<title>ClientsRoutingModule&#45;&gt;ClientsModule</title>
<path fill="none" stroke="#000000" d="M570,-122.0225C570,-139.3734 570,-163 570,-163 570,-163 475.9994,-163 475.9994,-163"/>
<polygon fill="#000000" stroke="#000000" points="475.9994,-159.5001 465.9994,-163 475.9994,-166.5001 475.9994,-159.5001"/>
</g>
<!-- PageHeaderModule -->
<g id="node4" class="node">
<title>PageHeaderModule</title>
<polygon fill="#8dd3c7" stroke="#000000" points="479.6727,-122 476.6727,-126 455.6727,-126 452.6727,-122 352.3273,-122 352.3273,-86 479.6727,-86 479.6727,-122"/>
<text text-anchor="middle" x="416" y="-99.8" font-family="Times,serif" font-size="14.00" fill="#000000">PageHeaderModule</text>
</g>
<!-- PageHeaderModule&#45;&gt;ClientsModule -->
<g id="edge3" class="edge">
<title>PageHeaderModule&#45;&gt;ClientsModule</title>
<path fill="none" stroke="#000000" d="M416,-122.1061C416,-122.1061 416,-140.991 416,-140.991"/>
<polygon fill="#000000" stroke="#000000" points="412.5001,-140.9909 416,-150.991 419.5001,-140.991 412.5001,-140.9909"/>
</g>
<!-- ClientsService -->
<g id="node5" class="node">
<title>ClientsService</title>
<ellipse fill="#fdb462" stroke="#000000" cx="261" cy="-104" rx="67.2081" ry="18"/>
<text text-anchor="middle" x="261" y="-99.8" font-family="Times,serif" font-size="14.00" fill="#000000">ClientsService</text>
</g>
<!-- ClientsService&#45;&gt;ClientsModule -->
<g id="edge4" class="edge">
<title>ClientsService&#45;&gt;ClientsModule</title>
<path fill="none" stroke="#000000" d="M261,-122.0225C261,-139.3734 261,-163 261,-163 261,-163 356.1038,-163 356.1038,-163"/>
<polygon fill="#000000" stroke="#000000" points="356.1039,-166.5001 366.1038,-163 356.1038,-159.5001 356.1039,-166.5001"/>
</g>
<!-- CommonService -->
<g id="node6" class="node">
<title>CommonService</title>
<ellipse fill="#fdb462" stroke="#000000" cx="100" cy="-104" rx="75.8836" ry="18"/>
<text text-anchor="middle" x="100" y="-99.8" font-family="Times,serif" font-size="14.00" fill="#000000">CommonService</text>
</g>
<!-- CommonService&#45;&gt;ClientsModule -->
<g id="edge5" class="edge">
<title>CommonService&#45;&gt;ClientsModule</title>
<path fill="none" stroke="#000000" d="M100,-122.2843C100,-143.3211 100,-175 100,-175 100,-175 356.2774,-175 356.2774,-175"/>
<polygon fill="#000000" stroke="#000000" points="356.2774,-178.5001 366.2774,-175 356.2773,-171.5001 356.2774,-178.5001"/>
</g>
</g>
</svg>
