<?xml version="1.0" encoding="UTF-8" standalone="no"?>
<!DOCTYPE svg PUBLIC "-//W3C//DTD SVG 1.1//EN"
 "http://www.w3.org/Graphics/SVG/1.1/DTD/svg11.dtd">
<!-- Generated by graphviz version 2.40.1 (20161225.0304)
 -->
<!-- Title: dependencies Pages: 1 -->
<svg width="988pt" height="211pt"
 viewBox="0.00 0.00 988.00 211.00" xmlns="http://www.w3.org/2000/svg" xmlns:xlink="http://www.w3.org/1999/xlink">
<g id="graph0" class="graph" transform="scale(1 1) rotate(0) translate(4 207)">
<title>dependencies</title>
<polygon fill="#ffffff" stroke="transparent" points="-4,4 -4,-207 984,-207 984,4 -4,4"/>
<text text-anchor="start" x="469.0091" y="-42.4" font-family="sans-serif" font-weight="bold" font-size="14.00" fill="#000000">Legend</text>
<polygon fill="#ffffb3" stroke="transparent" points="256,-10 256,-30 276,-30 276,-10 256,-10"/>
<text text-anchor="start" x="279.629" y="-15.4" font-family="sans-serif" font-size="14.00" fill="#000000"> &#160;Declarations</text>
<polygon fill="#8dd3c7" stroke="transparent" points="369,-10 369,-30 389,-30 389,-10 369,-10"/>
<text text-anchor="start" x="392.7251" y="-15.4" font-family="sans-serif" font-size="14.00" fill="#000000"> &#160;Module</text>
<polygon fill="#80b1d3" stroke="transparent" points="455,-10 455,-30 475,-30 475,-10 455,-10"/>
<text text-anchor="start" x="478.7812" y="-15.4" font-family="sans-serif" font-size="14.00" fill="#000000"> &#160;Bootstrap</text>
<polygon fill="#fdb462" stroke="transparent" points="552,-10 552,-30 572,-30 572,-10 552,-10"/>
<text text-anchor="start" x="575.6732" y="-15.4" font-family="sans-serif" font-size="14.00" fill="#000000"> &#160;Providers</text>
<polygon fill="#fb8072" stroke="transparent" points="648,-10 648,-30 668,-30 668,-10 648,-10"/>
<text text-anchor="start" x="671.7258" y="-15.4" font-family="sans-serif" font-size="14.00" fill="#000000"> &#160;Exports</text>
<g id="clust1" class="cluster">
<title>cluster_PoliciesModule</title>
<polygon fill="none" stroke="#000000" stroke-dasharray="1,5" points="8,-70 8,-195 972,-195 972,-70 8,-70"/>
</g>
<g id="clust2" class="cluster">
<title>cluster_PoliciesModule_declarations</title>
<polygon fill="none" stroke="#000000" points="822,-78 822,-130 964,-130 964,-78 822,-78"/>
</g>
<g id="clust4" class="cluster">
<title>cluster_PoliciesModule_imports</title>
<polygon fill="none" stroke="#000000" points="504,-78 504,-130 814,-130 814,-78 504,-78"/>
</g>
<g id="clust7" class="cluster">
<title>cluster_PoliciesModule_providers</title>
<polygon fill="none" stroke="#000000" points="16,-78 16,-130 496,-130 496,-78 16,-78"/>
</g>
<!-- PoliciesComponent -->
<g id="node1" class="node">
<title>PoliciesComponent</title>
<polygon fill="#ffffb3" stroke="#000000" points="955.6611,-122 830.3389,-122 830.3389,-86 955.6611,-86 955.6611,-122"/>
<text text-anchor="middle" x="893" y="-99.8" font-family="Times,serif" font-size="14.00" fill="#000000">PoliciesComponent</text>
</g>
<!-- PoliciesModule -->
<g id="node2" class="node">
<title>PoliciesModule</title>
<polygon fill="#8dd3c7" stroke="#000000" points="554.8781,-187 551.8781,-191 530.8781,-191 527.8781,-187 451.1219,-187 451.1219,-151 554.8781,-151 554.8781,-187"/>
<text text-anchor="middle" x="503" y="-164.8" font-family="Times,serif" font-size="14.00" fill="#000000">PoliciesModule</text>
</g>
<!-- PoliciesComponent&#45;&gt;PoliciesModule -->
<g id="edge1" class="edge">
<title>PoliciesComponent&#45;&gt;PoliciesModule</title>
<path fill="none" stroke="#000000" d="M893,-122.2843C893,-143.3211 893,-175 893,-175 893,-175 565.1925,-175 565.1925,-175"/>
<polygon fill="#000000" stroke="#000000" points="565.1925,-171.5001 555.1925,-175 565.1924,-178.5001 565.1925,-171.5001"/>
</g>
<!-- PageHeaderModule -->
<g id="node3" class="node">
<title>PageHeaderModule</title>
<polygon fill="#8dd3c7" stroke="#000000" points="805.6727,-122 802.6727,-126 781.6727,-126 778.6727,-122 678.3273,-122 678.3273,-86 805.6727,-86 805.6727,-122"/>
<text text-anchor="middle" x="742" y="-99.8" font-family="Times,serif" font-size="14.00" fill="#000000">PageHeaderModule</text>
</g>
<!-- PageHeaderModule&#45;&gt;PoliciesModule -->
<g id="edge2" class="edge">
<title>PageHeaderModule&#45;&gt;PoliciesModule</title>
<path fill="none" stroke="#000000" d="M742,-122.0225C742,-139.3734 742,-163 742,-163 742,-163 565.1542,-163 565.1542,-163"/>
<polygon fill="#000000" stroke="#000000" points="565.1543,-159.5001 555.1542,-163 565.1542,-166.5001 565.1543,-159.5001"/>
</g>
<!-- PoliciesRoutingModule -->
<g id="node4" class="node">
<title>PoliciesRoutingModule</title>
<polygon fill="#8dd3c7" stroke="#000000" points="660.4958,-122 657.4958,-126 636.4958,-126 633.4958,-122 511.5042,-122 511.5042,-86 660.4958,-86 660.4958,-122"/>
<text text-anchor="middle" x="586" y="-99.8" font-family="Times,serif" font-size="14.00" fill="#000000">PoliciesRoutingModule</text>
</g>
<!-- PoliciesRoutingModule&#45;&gt;PoliciesModule -->
<g id="edge3" class="edge">
<title>PoliciesRoutingModule&#45;&gt;PoliciesModule</title>
<path fill="none" stroke="#000000" d="M533.2206,-122.1061C533.2206,-122.1061 533.2206,-140.991 533.2206,-140.991"/>
<polygon fill="#000000" stroke="#000000" points="529.7206,-140.9909 533.2206,-150.991 536.7206,-140.991 529.7206,-140.9909"/>
</g>
<!-- ClientsService -->
<g id="node5" class="node">
<title>ClientsService</title>
<ellipse fill="#fdb462" stroke="#000000" cx="421" cy="-104" rx="67.2081" ry="18"/>
<text text-anchor="middle" x="421" y="-99.8" font-family="Times,serif" font-size="14.00" fill="#000000">ClientsService</text>
</g>
<!-- ClientsService&#45;&gt;PoliciesModule -->
<g id="edge4" class="edge">
<title>ClientsService&#45;&gt;PoliciesModule</title>
<path fill="none" stroke="#000000" d="M469.7074,-116.5327C469.7074,-116.5327 469.7074,-140.8507 469.7074,-140.8507"/>
<polygon fill="#000000" stroke="#000000" points="466.2075,-140.8506 469.7074,-150.8507 473.2075,-140.8507 466.2075,-140.8506"/>
</g>
<!-- CommonService -->
<g id="node6" class="node">
<title>CommonService</title>
<ellipse fill="#fdb462" stroke="#000000" cx="260" cy="-104" rx="75.8836" ry="18"/>
<text text-anchor="middle" x="260" y="-99.8" font-family="Times,serif" font-size="14.00" fill="#000000">CommonService</text>
</g>
<!-- CommonService&#45;&gt;PoliciesModule -->
<g id="edge5" class="edge">
<title>CommonService&#45;&gt;PoliciesModule</title>
<path fill="none" stroke="#000000" d="M260,-122.0225C260,-139.3734 260,-163 260,-163 260,-163 440.8704,-163 440.8704,-163"/>
<polygon fill="#000000" stroke="#000000" points="440.8704,-166.5001 450.8704,-163 440.8704,-159.5001 440.8704,-166.5001"/>
</g>
<!-- PoliciesService -->
<g id="node7" class="node">
<title>PoliciesService</title>
<ellipse fill="#fdb462" stroke="#000000" cx="95" cy="-104" rx="70.6374" ry="18"/>
<text text-anchor="middle" x="95" y="-99.8" font-family="Times,serif" font-size="14.00" fill="#000000">PoliciesService</text>
</g>
<!-- PoliciesService&#45;&gt;PoliciesModule -->
<g id="edge6" class="edge">
<title>PoliciesService&#45;&gt;PoliciesModule</title>
<path fill="none" stroke="#000000" d="M95,-122.2843C95,-143.3211 95,-175 95,-175 95,-175 440.9121,-175 440.9121,-175"/>
<polygon fill="#000000" stroke="#000000" points="440.9121,-178.5001 450.9121,-175 440.9121,-171.5001 440.9121,-178.5001"/>
</g>
</g>
</svg>
