<?xml version="1.0" encoding="UTF-8" standalone="no"?>
<!DOCTYPE svg PUBLIC "-//W3C//DTD SVG 1.1//EN"
 "http://www.w3.org/Graphics/SVG/1.1/DTD/svg11.dtd">
<!-- Generated by graphviz version 2.40.1 (20161225.0304)
 -->
<!-- Title: dependencies Pages: 1 -->
<svg width="794pt" height="211pt"
 viewBox="0.00 0.00 794.00 211.00" xmlns="http://www.w3.org/2000/svg" xmlns:xlink="http://www.w3.org/1999/xlink">
<g id="graph0" class="graph" transform="scale(1 1) rotate(0) translate(4 207)">
<title>dependencies</title>
<polygon fill="#ffffff" stroke="transparent" points="-4,4 -4,-207 790,-207 790,4 -4,4"/>
<text text-anchor="start" x="372.0091" y="-42.4" font-family="sans-serif" font-weight="bold" font-size="14.00" fill="#000000">Legend</text>
<polygon fill="#ffffb3" stroke="transparent" points="159,-10 159,-30 179,-30 179,-10 159,-10"/>
<text text-anchor="start" x="182.629" y="-15.4" font-family="sans-serif" font-size="14.00" fill="#000000"> &#160;Declarations</text>
<polygon fill="#8dd3c7" stroke="transparent" points="272,-10 272,-30 292,-30 292,-10 272,-10"/>
<text text-anchor="start" x="295.7251" y="-15.4" font-family="sans-serif" font-size="14.00" fill="#000000"> &#160;Module</text>
<polygon fill="#80b1d3" stroke="transparent" points="358,-10 358,-30 378,-30 378,-10 358,-10"/>
<text text-anchor="start" x="381.7812" y="-15.4" font-family="sans-serif" font-size="14.00" fill="#000000"> &#160;Bootstrap</text>
<polygon fill="#fdb462" stroke="transparent" points="455,-10 455,-30 475,-30 475,-10 455,-10"/>
<text text-anchor="start" x="478.6732" y="-15.4" font-family="sans-serif" font-size="14.00" fill="#000000"> &#160;Providers</text>
<polygon fill="#fb8072" stroke="transparent" points="551,-10 551,-30 571,-30 571,-10 551,-10"/>
<text text-anchor="start" x="574.7258" y="-15.4" font-family="sans-serif" font-size="14.00" fill="#000000"> &#160;Exports</text>
<g id="clust1" class="cluster">
<title>cluster_RolesModule</title>
<polygon fill="none" stroke="#000000" stroke-dasharray="1,5" points="8,-70 8,-195 778,-195 778,-70 8,-70"/>
</g>
<g id="clust2" class="cluster">
<title>cluster_RolesModule_declarations</title>
<polygon fill="none" stroke="#000000" points="640,-78 640,-130 770,-130 770,-78 640,-78"/>
</g>
<g id="clust4" class="cluster">
<title>cluster_RolesModule_imports</title>
<polygon fill="none" stroke="#000000" points="334,-78 334,-130 632,-130 632,-78 334,-78"/>
</g>
<g id="clust7" class="cluster">
<title>cluster_RolesModule_providers</title>
<polygon fill="none" stroke="#000000" points="16,-78 16,-130 326,-130 326,-78 16,-78"/>
</g>
<!-- RolesComponent -->
<g id="node1" class="node">
<title>RolesComponent</title>
<polygon fill="#ffffb3" stroke="#000000" points="761.719,-122 648.281,-122 648.281,-86 761.719,-86 761.719,-122"/>
<text text-anchor="middle" x="705" y="-99.8" font-family="Times,serif" font-size="14.00" fill="#000000">RolesComponent</text>
</g>
<!-- RolesModule -->
<g id="node2" class="node">
<title>RolesModule</title>
<polygon fill="#8dd3c7" stroke="#000000" points="455.9372,-187 452.9372,-191 431.9372,-191 428.9372,-187 364.0628,-187 364.0628,-151 455.9372,-151 455.9372,-187"/>
<text text-anchor="middle" x="410" y="-164.8" font-family="Times,serif" font-size="14.00" fill="#000000">RolesModule</text>
</g>
<!-- RolesComponent&#45;&gt;RolesModule -->
<g id="edge1" class="edge">
<title>RolesComponent&#45;&gt;RolesModule</title>
<path fill="none" stroke="#000000" d="M705,-122.2843C705,-143.3211 705,-175 705,-175 705,-175 465.7701,-175 465.7701,-175"/>
<polygon fill="#000000" stroke="#000000" points="465.7701,-171.5001 455.7701,-175 465.77,-178.5001 465.7701,-171.5001"/>
</g>
<!-- PageHeaderModule -->
<g id="node3" class="node">
<title>PageHeaderModule</title>
<polygon fill="#8dd3c7" stroke="#000000" points="623.6727,-122 620.6727,-126 599.6727,-126 596.6727,-122 496.3273,-122 496.3273,-86 623.6727,-86 623.6727,-122"/>
<text text-anchor="middle" x="560" y="-99.8" font-family="Times,serif" font-size="14.00" fill="#000000">PageHeaderModule</text>
</g>
<!-- PageHeaderModule&#45;&gt;RolesModule -->
<g id="edge2" class="edge">
<title>PageHeaderModule&#45;&gt;RolesModule</title>
<path fill="none" stroke="#000000" d="M560,-122.0225C560,-139.3734 560,-163 560,-163 560,-163 465.82,-163 465.82,-163"/>
<polygon fill="#000000" stroke="#000000" points="465.82,-159.5001 455.82,-163 465.82,-166.5001 465.82,-159.5001"/>
</g>
<!-- RolesRoutingModule -->
<g id="node4" class="node">
<title>RolesRoutingModule</title>
<polygon fill="#8dd3c7" stroke="#000000" points="478.0547,-122 475.0547,-126 454.0547,-126 451.0547,-122 341.9453,-122 341.9453,-86 478.0547,-86 478.0547,-122"/>
<text text-anchor="middle" x="410" y="-99.8" font-family="Times,serif" font-size="14.00" fill="#000000">RolesRoutingModule</text>
</g>
<!-- RolesRoutingModule&#45;&gt;RolesModule -->
<g id="edge3" class="edge">
<title>RolesRoutingModule&#45;&gt;RolesModule</title>
<path fill="none" stroke="#000000" d="M410,-122.1061C410,-122.1061 410,-140.991 410,-140.991"/>
<polygon fill="#000000" stroke="#000000" points="406.5001,-140.9909 410,-150.991 413.5001,-140.991 406.5001,-140.9909"/>
</g>
<!-- CommonService -->
<g id="node5" class="node">
<title>CommonService</title>
<ellipse fill="#fdb462" stroke="#000000" cx="242" cy="-104" rx="75.8836" ry="18"/>
<text text-anchor="middle" x="242" y="-99.8" font-family="Times,serif" font-size="14.00" fill="#000000">CommonService</text>
</g>
<!-- CommonService&#45;&gt;RolesModule -->
<g id="edge4" class="edge">
<title>CommonService&#45;&gt;RolesModule</title>
<path fill="none" stroke="#000000" d="M242,-122.0225C242,-139.3734 242,-163 242,-163 242,-163 354.0933,-163 354.0933,-163"/>
<polygon fill="#000000" stroke="#000000" points="354.0933,-166.5001 364.0933,-163 354.0932,-159.5001 354.0933,-166.5001"/>
</g>
<!-- RolesService -->
<g id="node6" class="node">
<title>RolesService</title>
<ellipse fill="#fdb462" stroke="#000000" cx="86" cy="-104" rx="61.9731" ry="18"/>
<text text-anchor="middle" x="86" y="-99.8" font-family="Times,serif" font-size="14.00" fill="#000000">RolesService</text>
</g>
<!-- RolesService&#45;&gt;RolesModule -->
<g id="edge5" class="edge">
<title>RolesService&#45;&gt;RolesModule</title>
<path fill="none" stroke="#000000" d="M86,-122.2843C86,-143.3211 86,-175 86,-175 86,-175 354.2659,-175 354.2659,-175"/>
<polygon fill="#000000" stroke="#000000" points="354.2659,-178.5001 364.2659,-175 354.2659,-171.5001 354.2659,-178.5001"/>
</g>
</g>
</svg>
