<?xml version="1.0" encoding="UTF-8" standalone="no"?>
<!DOCTYPE svg PUBLIC "-//W3C//DTD SVG 1.1//EN"
 "http://www.w3.org/Graphics/SVG/1.1/DTD/svg11.dtd">
<!-- Generated by graphviz version 2.40.1 (20161225.0304)
 -->
<!-- Title: dependencies Pages: 1 -->
<svg width="911pt" height="211pt"
 viewBox="0.00 0.00 911.00 211.00" xmlns="http://www.w3.org/2000/svg" xmlns:xlink="http://www.w3.org/1999/xlink">
<g id="graph0" class="graph" transform="scale(1 1) rotate(0) translate(4 207)">
<title>dependencies</title>
<polygon fill="#ffffff" stroke="transparent" points="-4,4 -4,-207 907,-207 907,4 -4,4"/>
<text text-anchor="start" x="430.5091" y="-42.4" font-family="sans-serif" font-weight="bold" font-size="14.00" fill="#000000">Legend</text>
<polygon fill="#ffffb3" stroke="transparent" points="217.5,-10 217.5,-30 237.5,-30 237.5,-10 217.5,-10"/>
<text text-anchor="start" x="241.129" y="-15.4" font-family="sans-serif" font-size="14.00" fill="#000000"> &#160;Declarations</text>
<polygon fill="#8dd3c7" stroke="transparent" points="330.5,-10 330.5,-30 350.5,-30 350.5,-10 330.5,-10"/>
<text text-anchor="start" x="354.2251" y="-15.4" font-family="sans-serif" font-size="14.00" fill="#000000"> &#160;Module</text>
<polygon fill="#80b1d3" stroke="transparent" points="416.5,-10 416.5,-30 436.5,-30 436.5,-10 416.5,-10"/>
<text text-anchor="start" x="440.2812" y="-15.4" font-family="sans-serif" font-size="14.00" fill="#000000"> &#160;Bootstrap</text>
<polygon fill="#fdb462" stroke="transparent" points="513.5,-10 513.5,-30 533.5,-30 533.5,-10 513.5,-10"/>
<text text-anchor="start" x="537.1732" y="-15.4" font-family="sans-serif" font-size="14.00" fill="#000000"> &#160;Providers</text>
<polygon fill="#fb8072" stroke="transparent" points="609.5,-10 609.5,-30 629.5,-30 629.5,-10 609.5,-10"/>
<text text-anchor="start" x="633.2258" y="-15.4" font-family="sans-serif" font-size="14.00" fill="#000000"> &#160;Exports</text>
<g id="clust1" class="cluster">
<title>cluster_LienholdersModule</title>
<polygon fill="none" stroke="#000000" stroke-dasharray="1,5" points="8,-70 8,-195 895,-195 895,-70 8,-70"/>
</g>
<g id="clust2" class="cluster">
<title>cluster_LienholdersModule_declarations</title>
<polygon fill="none" stroke="#000000" points="723,-78 723,-130 887,-130 887,-78 723,-78"/>
</g>
<g id="clust4" class="cluster">
<title>cluster_LienholdersModule_imports</title>
<polygon fill="none" stroke="#000000" points="382,-78 382,-130 715,-130 715,-78 382,-78"/>
</g>
<g id="clust7" class="cluster">
<title>cluster_LienholdersModule_providers</title>
<polygon fill="none" stroke="#000000" points="16,-78 16,-130 374,-130 374,-78 16,-78"/>
</g>
<!-- LienholdersComponent -->
<g id="node1" class="node">
<title>LienholdersComponent</title>
<polygon fill="#ffffb3" stroke="#000000" points="879.2007,-122 730.7993,-122 730.7993,-86 879.2007,-86 879.2007,-122"/>
<text text-anchor="middle" x="805" y="-99.8" font-family="Times,serif" font-size="14.00" fill="#000000">LienholdersComponent</text>
</g>
<!-- LienholdersModule -->
<g id="node2" class="node">
<title>LienholdersModule</title>
<polygon fill="#8dd3c7" stroke="#000000" points="517.4187,-187 514.4187,-191 493.4187,-191 490.4187,-187 390.5813,-187 390.5813,-151 517.4187,-151 517.4187,-187"/>
<text text-anchor="middle" x="454" y="-164.8" font-family="Times,serif" font-size="14.00" fill="#000000">LienholdersModule</text>
</g>
<!-- LienholdersComponent&#45;&gt;LienholdersModule -->
<g id="edge1" class="edge">
<title>LienholdersComponent&#45;&gt;LienholdersModule</title>
<path fill="none" stroke="#000000" d="M805,-122.2843C805,-143.3211 805,-175 805,-175 805,-175 527.5635,-175 527.5635,-175"/>
<polygon fill="#000000" stroke="#000000" points="527.5635,-171.5001 517.5635,-175 527.5634,-178.5001 527.5635,-171.5001"/>
</g>
<!-- LienholdersRoutingModule -->
<g id="node3" class="node">
<title>LienholdersRoutingModule</title>
<polygon fill="#8dd3c7" stroke="#000000" points="706.5364,-122 703.5364,-126 682.5364,-126 679.5364,-122 535.4636,-122 535.4636,-86 706.5364,-86 706.5364,-122"/>
<text text-anchor="middle" x="621" y="-99.8" font-family="Times,serif" font-size="14.00" fill="#000000">LienholdersRoutingModule</text>
</g>
<!-- LienholdersRoutingModule&#45;&gt;LienholdersModule -->
<g id="edge2" class="edge">
<title>LienholdersRoutingModule&#45;&gt;LienholdersModule</title>
<path fill="none" stroke="#000000" d="M621,-122.0225C621,-139.3734 621,-163 621,-163 621,-163 527.6119,-163 527.6119,-163"/>
<polygon fill="#000000" stroke="#000000" points="527.612,-159.5001 517.6119,-163 527.6119,-166.5001 527.612,-159.5001"/>
</g>
<!-- PageHeaderModule -->
<g id="node4" class="node">
<title>PageHeaderModule</title>
<polygon fill="#8dd3c7" stroke="#000000" points="517.6727,-122 514.6727,-126 493.6727,-126 490.6727,-122 390.3273,-122 390.3273,-86 517.6727,-86 517.6727,-122"/>
<text text-anchor="middle" x="454" y="-99.8" font-family="Times,serif" font-size="14.00" fill="#000000">PageHeaderModule</text>
</g>
<!-- PageHeaderModule&#45;&gt;LienholdersModule -->
<g id="edge3" class="edge">
<title>PageHeaderModule&#45;&gt;LienholdersModule</title>
<path fill="none" stroke="#000000" d="M454,-122.1061C454,-122.1061 454,-140.991 454,-140.991"/>
<polygon fill="#000000" stroke="#000000" points="450.5001,-140.9909 454,-150.991 457.5001,-140.991 450.5001,-140.9909"/>
</g>
<!-- CommonService -->
<g id="node5" class="node">
<title>CommonService</title>
<ellipse fill="#fdb462" stroke="#000000" cx="290" cy="-104" rx="75.8836" ry="18"/>
<text text-anchor="middle" x="290" y="-99.8" font-family="Times,serif" font-size="14.00" fill="#000000">CommonService</text>
</g>
<!-- CommonService&#45;&gt;LienholdersModule -->
<g id="edge4" class="edge">
<title>CommonService&#45;&gt;LienholdersModule</title>
<path fill="none" stroke="#000000" d="M290,-122.0225C290,-139.3734 290,-163 290,-163 290,-163 380.5933,-163 380.5933,-163"/>
<polygon fill="#000000" stroke="#000000" points="380.5934,-166.5001 390.5933,-163 380.5933,-159.5001 380.5934,-166.5001"/>
</g>
<!-- LienholdersService -->
<g id="node6" class="node">
<title>LienholdersService</title>
<ellipse fill="#fdb462" stroke="#000000" cx="110" cy="-104" rx="86.2329" ry="18"/>
<text text-anchor="middle" x="110" y="-99.8" font-family="Times,serif" font-size="14.00" fill="#000000">LienholdersService</text>
</g>
<!-- LienholdersService&#45;&gt;LienholdersModule -->
<g id="edge5" class="edge">
<title>LienholdersService&#45;&gt;LienholdersModule</title>
<path fill="none" stroke="#000000" d="M110,-122.2843C110,-143.3211 110,-175 110,-175 110,-175 380.5042,-175 380.5042,-175"/>
<polygon fill="#000000" stroke="#000000" points="380.5042,-178.5001 390.5042,-175 380.5042,-171.5001 380.5042,-178.5001"/>
</g>
</g>
</svg>
