<?xml version="1.0" encoding="UTF-8" standalone="no"?>
<!DOCTYPE svg PUBLIC "-//W3C//DTD SVG 1.1//EN"
 "http://www.w3.org/Graphics/SVG/1.1/DTD/svg11.dtd">
<!-- Generated by graphviz version 2.40.1 (20161225.0304)
 -->
<!-- Title: dependencies Pages: 1 -->
<svg width="943pt" height="211pt"
 viewBox="0.00 0.00 943.00 211.00" xmlns="http://www.w3.org/2000/svg" xmlns:xlink="http://www.w3.org/1999/xlink">
<g id="graph0" class="graph" transform="scale(1 1) rotate(0) translate(4 207)">
<title>dependencies</title>
<polygon fill="#ffffff" stroke="transparent" points="-4,4 -4,-207 939,-207 939,4 -4,4"/>
<text text-anchor="start" x="446.5091" y="-42.4" font-family="sans-serif" font-weight="bold" font-size="14.00" fill="#000000">Legend</text>
<polygon fill="#ffffb3" stroke="transparent" points="233.5,-10 233.5,-30 253.5,-30 253.5,-10 233.5,-10"/>
<text text-anchor="start" x="257.129" y="-15.4" font-family="sans-serif" font-size="14.00" fill="#000000"> &#160;Declarations</text>
<polygon fill="#8dd3c7" stroke="transparent" points="346.5,-10 346.5,-30 366.5,-30 366.5,-10 346.5,-10"/>
<text text-anchor="start" x="370.2251" y="-15.4" font-family="sans-serif" font-size="14.00" fill="#000000"> &#160;Module</text>
<polygon fill="#80b1d3" stroke="transparent" points="432.5,-10 432.5,-30 452.5,-30 452.5,-10 432.5,-10"/>
<text text-anchor="start" x="456.2812" y="-15.4" font-family="sans-serif" font-size="14.00" fill="#000000"> &#160;Bootstrap</text>
<polygon fill="#fdb462" stroke="transparent" points="529.5,-10 529.5,-30 549.5,-30 549.5,-10 529.5,-10"/>
<text text-anchor="start" x="553.1732" y="-15.4" font-family="sans-serif" font-size="14.00" fill="#000000"> &#160;Providers</text>
<polygon fill="#fb8072" stroke="transparent" points="625.5,-10 625.5,-30 645.5,-30 645.5,-10 625.5,-10"/>
<text text-anchor="start" x="649.2258" y="-15.4" font-family="sans-serif" font-size="14.00" fill="#000000"> &#160;Exports</text>
<g id="clust1" class="cluster">
<title>cluster_AgencyContactsModule</title>
<polygon fill="none" stroke="#000000" stroke-dasharray="1,5" points="8,-70 8,-195 927,-195 927,-70 8,-70"/>
</g>
<g id="clust2" class="cluster">
<title>cluster_AgencyContactsModule_declarations</title>
<polygon fill="none" stroke="#000000" points="729,-78 729,-130 919,-130 919,-78 729,-78"/>
</g>
<g id="clust4" class="cluster">
<title>cluster_AgencyContactsModule_imports</title>
<polygon fill="none" stroke="#000000" points="362,-78 362,-130 721,-130 721,-78 362,-78"/>
</g>
<g id="clust7" class="cluster">
<title>cluster_AgencyContactsModule_providers</title>
<polygon fill="none" stroke="#000000" points="16,-78 16,-130 354,-130 354,-78 16,-78"/>
</g>
<!-- AgencyContactsComponent -->
<g id="node1" class="node">
<title>AgencyContactsComponent</title>
<polygon fill="#ffffb3" stroke="#000000" points="910.8599,-122 737.1401,-122 737.1401,-86 910.8599,-86 910.8599,-122"/>
<text text-anchor="middle" x="824" y="-99.8" font-family="Times,serif" font-size="14.00" fill="#000000">AgencyContactsComponent</text>
</g>
<!-- AgencyContactsModule -->
<g id="node2" class="node">
<title>AgencyContactsModule</title>
<polygon fill="#8dd3c7" stroke="#000000" points="510.0772,-187 507.0772,-191 486.0772,-191 483.0772,-187 357.9228,-187 357.9228,-151 510.0772,-151 510.0772,-187"/>
<text text-anchor="middle" x="434" y="-164.8" font-family="Times,serif" font-size="14.00" fill="#000000">AgencyContactsModule</text>
</g>
<!-- AgencyContactsComponent&#45;&gt;AgencyContactsModule -->
<g id="edge1" class="edge">
<title>AgencyContactsComponent&#45;&gt;AgencyContactsModule</title>
<path fill="none" stroke="#000000" d="M824,-122.1061C824,-141.3391 824,-169 824,-169 824,-169 520.1218,-169 520.1218,-169"/>
<polygon fill="#000000" stroke="#000000" points="520.1218,-165.5001 510.1218,-169 520.1217,-172.5001 520.1218,-165.5001"/>
</g>
<!-- AgencyContactsRoutingModule -->
<g id="node3" class="node">
<title>AgencyContactsRoutingModule</title>
<polygon fill="#8dd3c7" stroke="#000000" points="712.6951,-122 709.6951,-126 688.6951,-126 685.6951,-122 515.3049,-122 515.3049,-86 712.6951,-86 712.6951,-122"/>
<text text-anchor="middle" x="614" y="-99.8" font-family="Times,serif" font-size="14.00" fill="#000000">AgencyContactsRoutingModule</text>
</g>
<!-- AgencyContactsRoutingModule&#45;&gt;AgencyContactsModule -->
<g id="edge2" class="edge">
<title>AgencyContactsRoutingModule&#45;&gt;AgencyContactsModule</title>
<path fill="none" stroke="#000000" d="M515.1894,-104C508.1856,-104 503.8125,-104 503.8125,-104 503.8125,-104 503.8125,-140.8939 503.8125,-140.8939"/>
<polygon fill="#000000" stroke="#000000" points="500.3125,-140.8938 503.8125,-150.8939 507.3125,-140.8939 500.3125,-140.8938"/>
</g>
<!-- PageHeaderModule -->
<g id="node4" class="node">
<title>PageHeaderModule</title>
<polygon fill="#8dd3c7" stroke="#000000" points="497.6727,-122 494.6727,-126 473.6727,-126 470.6727,-122 370.3273,-122 370.3273,-86 497.6727,-86 497.6727,-122"/>
<text text-anchor="middle" x="434" y="-99.8" font-family="Times,serif" font-size="14.00" fill="#000000">PageHeaderModule</text>
</g>
<!-- PageHeaderModule&#45;&gt;AgencyContactsModule -->
<g id="edge3" class="edge">
<title>PageHeaderModule&#45;&gt;AgencyContactsModule</title>
<path fill="none" stroke="#000000" d="M434,-122.1061C434,-122.1061 434,-140.991 434,-140.991"/>
<polygon fill="#000000" stroke="#000000" points="430.5001,-140.9909 434,-150.991 437.5001,-140.991 430.5001,-140.9909"/>
</g>
<!-- AgenciesService -->
<g id="node5" class="node">
<title>AgenciesService</title>
<ellipse fill="#fdb462" stroke="#000000" cx="270" cy="-104" rx="75.8393" ry="18"/>
<text text-anchor="middle" x="270" y="-99.8" font-family="Times,serif" font-size="14.00" fill="#000000">AgenciesService</text>
</g>
<!-- AgenciesService&#45;&gt;AgencyContactsModule -->
<g id="edge4" class="edge">
<title>AgenciesService&#45;&gt;AgencyContactsModule</title>
<path fill="none" stroke="#000000" d="M346.0272,-104C356.7372,-104 364.1876,-104 364.1876,-104 364.1876,-104 364.1876,-140.8939 364.1876,-140.8939"/>
<polygon fill="#000000" stroke="#000000" points="360.6876,-140.8938 364.1876,-150.8939 367.6876,-140.8939 360.6876,-140.8938"/>
</g>
<!-- CommonService -->
<g id="node6" class="node">
<title>CommonService</title>
<ellipse fill="#fdb462" stroke="#000000" cx="100" cy="-104" rx="75.8836" ry="18"/>
<text text-anchor="middle" x="100" y="-99.8" font-family="Times,serif" font-size="14.00" fill="#000000">CommonService</text>
</g>
<!-- CommonService&#45;&gt;AgencyContactsModule -->
<g id="edge5" class="edge">
<title>CommonService&#45;&gt;AgencyContactsModule</title>
<path fill="none" stroke="#000000" d="M100,-122.1061C100,-141.3391 100,-169 100,-169 100,-169 347.7923,-169 347.7923,-169"/>
<polygon fill="#000000" stroke="#000000" points="347.7923,-172.5001 357.7923,-169 347.7923,-165.5001 347.7923,-172.5001"/>
</g>
</g>
</svg>
