<?xml version="1.0" encoding="UTF-8" standalone="no"?>
<!DOCTYPE svg PUBLIC "-//W3C//DTD SVG 1.1//EN"
 "http://www.w3.org/Graphics/SVG/1.1/DTD/svg11.dtd">
<!-- Generated by graphviz version 2.40.1 (20161225.0304)
 -->
<!-- Title: dependencies Pages: 1 -->
<svg width="504pt" height="211pt"
 viewBox="0.00 0.00 504.00 211.00" xmlns="http://www.w3.org/2000/svg" xmlns:xlink="http://www.w3.org/1999/xlink">
<g id="graph0" class="graph" transform="scale(1 1) rotate(0) translate(4 207)">
<title>dependencies</title>
<polygon fill="#ffffff" stroke="transparent" points="-4,4 -4,-207 500,-207 500,4 -4,4"/>
<text text-anchor="start" x="227.0091" y="-42.4" font-family="sans-serif" font-weight="bold" font-size="14.00" fill="#000000">Legend</text>
<polygon fill="#ffffb3" stroke="transparent" points="14,-10 14,-30 34,-30 34,-10 14,-10"/>
<text text-anchor="start" x="37.629" y="-15.4" font-family="sans-serif" font-size="14.00" fill="#000000"> &#160;Declarations</text>
<polygon fill="#8dd3c7" stroke="transparent" points="127,-10 127,-30 147,-30 147,-10 127,-10"/>
<text text-anchor="start" x="150.7251" y="-15.4" font-family="sans-serif" font-size="14.00" fill="#000000"> &#160;Module</text>
<polygon fill="#80b1d3" stroke="transparent" points="213,-10 213,-30 233,-30 233,-10 213,-10"/>
<text text-anchor="start" x="236.7812" y="-15.4" font-family="sans-serif" font-size="14.00" fill="#000000"> &#160;Bootstrap</text>
<polygon fill="#fdb462" stroke="transparent" points="310,-10 310,-30 330,-30 330,-10 310,-10"/>
<text text-anchor="start" x="333.6732" y="-15.4" font-family="sans-serif" font-size="14.00" fill="#000000"> &#160;Providers</text>
<polygon fill="#fb8072" stroke="transparent" points="406,-10 406,-30 426,-30 426,-10 406,-10"/>
<text text-anchor="start" x="429.7258" y="-15.4" font-family="sans-serif" font-size="14.00" fill="#000000"> &#160;Exports</text>
<g id="clust1" class="cluster">
<title>cluster_ForgotpasswordModule</title>
<polygon fill="none" stroke="#000000" stroke-dasharray="1,5" points="37,-70 37,-195 459,-195 459,-70 37,-70"/>
</g>
<g id="clust2" class="cluster">
<title>cluster_ForgotpasswordModule_declarations</title>
<polygon fill="none" stroke="#000000" points="263,-78 263,-130 451,-130 451,-78 263,-78"/>
</g>
<g id="clust4" class="cluster">
<title>cluster_ForgotpasswordModule_imports</title>
<polygon fill="none" stroke="#000000" points="45,-78 45,-130 255,-130 255,-78 45,-78"/>
</g>
<!-- ForgotpasswordComponent -->
<g id="node1" class="node">
<title>ForgotpasswordComponent</title>
<polygon fill="#ffffb3" stroke="#000000" points="442.5378,-122 271.4622,-122 271.4622,-86 442.5378,-86 442.5378,-122"/>
<text text-anchor="middle" x="357" y="-99.8" font-family="Times,serif" font-size="14.00" fill="#000000">ForgotpasswordComponent</text>
</g>
<!-- ForgotpasswordModule -->
<g id="node2" class="node">
<title>ForgotpasswordModule</title>
<polygon fill="#8dd3c7" stroke="#000000" points="327.7548,-187 324.7548,-191 303.7548,-191 300.7548,-187 178.2452,-187 178.2452,-151 327.7548,-151 327.7548,-187"/>
<text text-anchor="middle" x="253" y="-164.8" font-family="Times,serif" font-size="14.00" fill="#000000">ForgotpasswordModule</text>
</g>
<!-- ForgotpasswordComponent&#45;&gt;ForgotpasswordModule -->
<g id="edge1" class="edge">
<title>ForgotpasswordComponent&#45;&gt;ForgotpasswordModule</title>
<path fill="none" stroke="#000000" d="M299.5544,-122.1061C299.5544,-122.1061 299.5544,-140.991 299.5544,-140.991"/>
<polygon fill="#000000" stroke="#000000" points="296.0544,-140.9909 299.5544,-150.991 303.0544,-140.991 296.0544,-140.9909"/>
</g>
<!-- ForgotpasswordRoutingModule -->
<g id="node3" class="node">
<title>ForgotpasswordRoutingModule</title>
<polygon fill="#8dd3c7" stroke="#000000" points="247.3724,-122 244.3724,-126 223.3724,-126 220.3724,-122 52.6276,-122 52.6276,-86 247.3724,-86 247.3724,-122"/>
<text text-anchor="middle" x="150" y="-99.8" font-family="Times,serif" font-size="14.00" fill="#000000">ForgotpasswordRoutingModule</text>
</g>
<!-- ForgotpasswordRoutingModule&#45;&gt;ForgotpasswordModule -->
<g id="edge2" class="edge">
<title>ForgotpasswordRoutingModule&#45;&gt;ForgotpasswordModule</title>
<path fill="none" stroke="#000000" d="M212.7795,-122.1061C212.7795,-122.1061 212.7795,-140.991 212.7795,-140.991"/>
<polygon fill="#000000" stroke="#000000" points="209.2795,-140.9909 212.7795,-150.991 216.2795,-140.991 209.2795,-140.9909"/>
</g>
</g>
</svg>
